<svg width="72" height="92" viewBox="0 0 72 92" fill="none" xmlns="http://www.w3.org/2000/svg">
<g filter="url(#filter0_d_2006_2588)">
<rect x="4" y="2" width="64" height="64" rx="32" fill="#FFFCFA" shape-rendering="crispEdges"/>
<path d="M36 12V56M36 44C47.046 44 56 39.524 56 34C56 30.3 51.978 27.066 46 25.338" stroke="#100E0E" stroke-width="3"/>
<path d="M52 22L46 25L47 32M17.664 30C16.594 31.226 16 32.578 16 34C16 35.422 16.594 36.776 17.664 38M22 26.86C23.726 26.012 25.756 25.322 28 24.832M28 43.168C25.756 42.678 23.726 41.988 22 41.142" stroke="#100E0E" stroke-width="3"/>
<path d="M20.3901 74.8H28.5341V76.864H22.8701V79.344H27.1101V81.312H22.8701V86H20.3901V74.8ZM32.4169 74.8V83.936H37.3449V86H29.9369V74.8H32.4169ZM38.6557 74.8H41.1357V86H38.6557V74.8ZM47.8768 79.856C48.2608 79.856 48.5755 79.7973 48.8208 79.68C49.0661 79.5627 49.2475 79.392 49.3648 79.168C49.4928 78.9333 49.5568 78.6613 49.5568 78.352C49.5568 77.8933 49.4181 77.5307 49.1408 77.264C48.8741 76.9973 48.4528 76.864 47.8768 76.864H45.5888V79.856H47.8768ZM52.0688 78.352C52.0688 78.7893 51.9888 79.2213 51.8288 79.648C51.6795 80.064 51.4395 80.448 51.1088 80.8C50.7888 81.1413 50.3675 81.4133 49.8448 81.616C49.3328 81.8187 48.7195 81.92 48.0048 81.92H45.5888V86H43.1088V74.8H48.0048C48.9115 74.8 49.6635 74.9653 50.2608 75.296C50.8688 75.616 51.3221 76.048 51.6208 76.592C51.9195 77.1253 52.0688 77.712 52.0688 78.352Z" fill="#FFFCFA"/>
</g>
<defs>
<filter id="filter0_d_2006_2588" x="0" y="0" width="72" height="92" filterUnits="userSpaceOnUse" color-interpolation-filters="sRGB">
<feFlood flood-opacity="0" result="BackgroundImageFix"/>
<feColorMatrix in="SourceAlpha" type="matrix" values="0 0 0 0 0 0 0 0 0 0 0 0 0 0 0 0 0 0 127 0" result="hardAlpha"/>
<feOffset dy="2"/>
<feGaussianBlur stdDeviation="2"/>
<feComposite in2="hardAlpha" operator="out"/>
<feColorMatrix type="matrix" values="0 0 0 0 0 0 0 0 0 0 0 0 0 0 0 0 0 0 0.25 0"/>
<feBlend mode="normal" in2="BackgroundImageFix" result="effect1_dropShadow_2006_2588"/>
<feBlend mode="normal" in="SourceGraphic" in2="effect1_dropShadow_2006_2588" result="shape"/>
</filter>
</defs>
</svg>
