<svg width="72" height="93" viewBox="0 0 72 93" fill="none" xmlns="http://www.w3.org/2000/svg">
<g filter="url(#filter0_d_2006_2604)">
<rect x="4" y="2" width="64" height="64" rx="32" fill="#FFFCFA" shape-rendering="crispEdges"/>
<path d="M40.8571 18.1468C40.8571 16.2713 38.6166 15.3011 37.2486 16.5833L28.7851 24.5205C28.229 25.0416 27.4953 25.3315 26.7331 25.3313H21.5714C20.0938 25.3313 18.6767 25.9183 17.6318 26.9632C16.587 28.008 16 29.4251 16 30.9028V36.8891C16 38.3667 16.587 39.7838 17.6318 40.8287C18.6767 41.8735 20.0938 42.4605 21.5714 42.4605H26.7349C27.496 42.4605 28.2297 42.7519 28.7851 43.2713L37.2486 51.2016C38.6183 52.4839 40.8571 51.5136 40.8571 49.6382V18.1468ZM30.544 26.3959L38.2857 19.1342V48.6473L30.544 41.3925C29.5114 40.4253 28.1496 39.8872 26.7349 39.8873H21.5714C20.7758 39.8873 20.0127 39.5713 19.4501 39.0087C18.8875 38.4461 18.5714 37.683 18.5714 36.8873V30.9011C18.5714 29.2451 19.9154 27.9011 21.5714 27.9011H26.7331C28.149 27.9007 29.5115 27.3613 30.544 26.3925M51.4891 18.8942C51.261 18.6499 50.9466 18.504 50.6127 18.4876C50.2788 18.4711 49.9516 18.5854 49.7005 18.8062C49.4494 19.0269 49.2942 19.3368 49.2678 19.67C49.2413 20.0033 49.3457 20.3338 49.5589 20.5913C52.7978 24.2649 54.5808 28.9967 54.5714 33.8942C54.5714 38.9908 52.6806 43.6433 49.5589 47.1919C49.4414 47.3177 49.3504 47.4658 49.2912 47.6274C49.232 47.789 49.2059 47.9608 49.2144 48.1327C49.2228 48.3045 49.2657 48.473 49.3405 48.628C49.4152 48.783 49.5203 48.9214 49.6496 49.035C49.7788 49.1487 49.9296 49.2352 50.0929 49.2895C50.2562 49.3438 50.4287 49.3647 50.6002 49.3511C50.7718 49.3375 50.9389 49.2896 51.0915 49.2102C51.2442 49.1309 51.3794 49.0216 51.4891 48.8891C55.1397 44.7478 57.1505 39.4148 57.1429 33.8942C57.1509 28.373 55.1401 23.0394 51.4891 18.8976M47.4606 24.1262C47.3603 23.9882 47.2336 23.8715 47.0878 23.7829C46.942 23.6943 46.78 23.6356 46.6113 23.6103C46.4426 23.5849 46.2705 23.5934 46.1051 23.6352C45.9397 23.6771 45.7843 23.7514 45.6479 23.8539C45.5115 23.9564 45.3969 24.085 45.3107 24.2322C45.2245 24.3795 45.1685 24.5424 45.1459 24.7115C45.1233 24.8806 45.1346 25.0525 45.1791 25.2172C45.2236 25.3819 45.3004 25.5361 45.4051 25.6708C47.1871 28.0416 48.1482 30.9284 48.1429 33.8942C48.1429 36.9799 47.1246 39.8256 45.4051 42.1176C45.3038 42.2527 45.2301 42.4064 45.1882 42.57C45.1463 42.7335 45.137 42.9037 45.1609 43.0709C45.1848 43.238 45.2414 43.3988 45.3274 43.5441C45.4134 43.6894 45.5272 43.8163 45.6623 43.9176C45.7974 44.0189 45.9511 44.0926 46.1146 44.1346C46.2782 44.1765 46.4484 44.1857 46.6155 44.1619C46.7827 44.138 46.9435 44.0814 47.0888 43.9954C47.2341 43.9094 47.361 43.7956 47.4623 43.6605C49.5781 40.8446 50.7196 37.4164 50.7143 33.8942C50.7196 30.372 49.5781 26.9438 47.4623 24.1279" fill="#100E0E"/>
<path d="M8.73725 74.8V83.936H13.6653V86H6.25725V74.8H8.73725ZM14.976 74.8H17.456V86H14.976V74.8ZM21.3331 82.704C21.3971 83.0133 21.5145 83.2693 21.6851 83.472C21.8558 83.6747 22.0745 83.8293 22.3411 83.936C22.6078 84.032 22.9118 84.08 23.2531 84.08C23.8185 84.08 24.2451 83.9573 24.5331 83.712C24.8211 83.4667 24.9651 83.1627 24.9651 82.8C24.9651 82.5013 24.8745 82.2613 24.6931 82.08C24.5225 81.888 24.2718 81.728 23.9411 81.6C23.6211 81.472 23.2531 81.344 22.8371 81.216C22.4105 81.0987 21.9838 80.9653 21.5571 80.816C21.1305 80.656 20.7358 80.464 20.3731 80.24C20.0211 80.0053 19.7385 79.7013 19.5251 79.328C19.3118 78.9547 19.2105 78.4907 19.2211 77.936C19.2211 77.2427 19.3918 76.656 19.7331 76.176C20.0851 75.6853 20.5598 75.3173 21.1571 75.072C21.7651 74.816 22.4638 74.688 23.2531 74.688C23.9465 74.688 24.5651 74.7893 25.1091 74.992C25.6531 75.184 26.1065 75.4773 26.4691 75.872C26.8318 76.256 27.0878 76.7307 27.2371 77.296L24.9651 77.792C24.9225 77.5573 24.8158 77.36 24.6451 77.2C24.4851 77.0293 24.2878 76.9067 24.0531 76.832C23.8185 76.7467 23.5785 76.6987 23.3331 76.688C23.0345 76.688 22.7625 76.736 22.5171 76.832C22.2825 76.928 22.0905 77.0667 21.9411 77.248C21.8025 77.4293 21.7331 77.6373 21.7331 77.872C21.7331 78.1387 21.8131 78.3573 21.9731 78.528C22.1438 78.688 22.3731 78.8267 22.6611 78.944C22.9491 79.0613 23.2638 79.1787 23.6051 79.296C24.0425 79.4347 24.4851 79.584 24.9331 79.744C25.3918 79.904 25.8131 80.112 26.1971 80.368C26.5811 80.6133 26.8905 80.9333 27.1251 81.328C27.3598 81.712 27.4771 82.192 27.4771 82.768C27.4771 83.3973 27.3278 83.9627 27.0291 84.464C26.7305 84.9653 26.2771 85.3653 25.6691 85.664C25.0718 85.9627 24.3145 86.112 23.3971 86.112C22.6291 86.112 21.9411 86 21.3331 85.776C20.7251 85.552 20.2238 85.2267 19.8291 84.8C19.4345 84.3733 19.1731 83.856 19.0451 83.248L21.3331 82.704ZM28.5585 74.8H37.9665V76.864H34.4945V86H32.0305V76.864H28.5585V74.8ZM47.5888 76.864H41.9248V79.344H46.1648V81.312H41.9248V83.936H47.5888V86H39.4448V74.8H47.5888V76.864ZM58.746 74.8V86H56.25L51.706 78.72V86H49.226V74.8H51.738L56.266 82.112V74.8H58.746Z" fill="#FFFCFA"/>
</g>
<defs>
<filter id="filter0_d_2006_2604" x="0" y="0" width="72" height="92.1121" filterUnits="userSpaceOnUse" color-interpolation-filters="sRGB">
<feFlood flood-opacity="0" result="BackgroundImageFix"/>
<feColorMatrix in="SourceAlpha" type="matrix" values="0 0 0 0 0 0 0 0 0 0 0 0 0 0 0 0 0 0 127 0" result="hardAlpha"/>
<feOffset dy="2"/>
<feGaussianBlur stdDeviation="2"/>
<feComposite in2="hardAlpha" operator="out"/>
<feColorMatrix type="matrix" values="0 0 0 0 0 0 0 0 0 0 0 0 0 0 0 0 0 0 0.25 0"/>
<feBlend mode="normal" in2="BackgroundImageFix" result="effect1_dropShadow_2006_2604"/>
<feBlend mode="normal" in="SourceGraphic" in2="effect1_dropShadow_2006_2604" result="shape"/>
</filter>
</defs>
</svg>
